<svg width="500" height="500" viewBox="0 0 500 500" fill="none" xmlns="http://www.w3.org/2000/svg">
  <g stroke="black" stroke-width="1" fill="none" opacity="0.7">
    <!-- várias curvas deslocadas -->
    <path d="M250 100 C 350 50, 450 200, 350 300 C 250 400, 150 350, 100 250 C 50 150, 150 50, 250 100"></path>
    <path d="M250 110 C 360 60, 460 210, 360 310 C 250 410, 140 360, 90 250 C 40 140, 140 40, 250 110"></path>
    <path d="M250 120 C 370 70, 470 220, 370 320 C 250 420, 130 370, 80 250 C 30 130, 130 30, 250 120"></path>
    <path d="M250 130 C 380 80, 480 230, 380 330 C 250 430, 120 380, 70 250 C 20 120, 120 20, 250 130"></path>
    <path d="M250 140 C 390 90, 490 240, 390 340 C 250 440, 110 390, 60 250 C 10 110, 110 10, 250 140"></path>
  </g>
</svg>